HIERARCHY
ROOT Hips
{
 OFFSET 0.000000 0.000000 0.000000
 CHANNELS 6 Xposition Yposition Zposition Yrotation Xrotation Zrotation
 JOINT Chest
 {
  OFFSET 0.000000 9.585900 0.002600
  CHANNELS 3 Yrotation Xrotation Zrotation
  JOINT Chest2
  {
   OFFSET 0.000000 9.601200 -0.005300
   CHANNELS 3 Yrotation Xrotation Zrotation
   JOINT Chest3
   {
    OFFSET 0.000000 9.561800 0.000000
    CHANNELS 3 Yrotation Xrotation Zrotation
    JOINT Chest4
    {
     OFFSET 0.000000 9.552100 0.000000
     CHANNELS 3 Yrotation Xrotation Zrotation
     JOINT Neck
     {
      OFFSET 0.000000 14.453000 0.000000
      CHANNELS 3 Yrotation Xrotation Zrotation
      JOINT Head
      {
       OFFSET 0.000000 8.936500 -0.011300
       CHANNELS 3 Yrotation Xrotation Zrotation
       End Site
       {
        OFFSET 0.000000 17.073600 -0.006000
       }
      }
     }
     JOINT RightCollar
     {
      OFFSET -2.921100 9.558500 0.000000
      CHANNELS 3 Yrotation Xrotation Zrotation
      JOINT RightShoulder
      {
       OFFSET -13.519700 0.000000 0.000000
       CHANNELS 3 Yrotation Xrotation Zrotation
       JOINT RightElbow
       {
        OFFSET 0.000000 -29.696600 0.000000
        CHANNELS 3 Yrotation Xrotation Zrotation
        JOINT RightWrist
        {
         OFFSET 0.000000 -24.004700 0.000000
         CHANNELS 3 Yrotation Xrotation Zrotation
         End Site
         {
          OFFSET 0.000000 -17.728500 0.000000
         }
        }
       }
      }
     }
     JOINT LeftCollar
     {
      OFFSET 2.921100 9.558500 0.000000
      CHANNELS 3 Yrotation Xrotation Zrotation
      JOINT LeftShoulder
      {
       OFFSET 13.519700 0.000000 0.000000
       CHANNELS 3 Yrotation Xrotation Zrotation
       JOINT LeftElbow
       {
        OFFSET 0.000000 -29.696600 0.000000
        CHANNELS 3 Yrotation Xrotation Zrotation
        JOINT LeftWrist
        {
         OFFSET 0.000000 -24.004700 0.000000
         CHANNELS 3 Yrotation Xrotation Zrotation
         End Site
         {
          OFFSET 0.000000 -17.728500 0.000000
         }
        }
       }
      }
     }
    }
   }
  }
 }
 JOINT RightHip
 {
  OFFSET -7.771700 -0.012900 -0.001300
  CHANNELS 3 Yrotation Xrotation Zrotation
  JOINT RightKnee
  {
   OFFSET 0.000000 -40.869800 0.001200
   CHANNELS 3 Yrotation Xrotation Zrotation
   JOINT RightAnkle
   {
    OFFSET 0.000000 -39.717900 0.002100
    CHANNELS 3 Yrotation Xrotation Zrotation
    JOINT RightToe
    {
     OFFSET 0.000000 -4.965400 11.033500
     CHANNELS 3 Yrotation Xrotation Zrotation
     End Site
     {
      OFFSET 0.000000 -1.423100 5.872300
     }
    }
   }
  }
 }
 JOINT LeftHip
 {
  OFFSET 7.771700 -0.012900 -0.001300
  CHANNELS 3 Yrotation Xrotation Zrotation
  JOINT LeftKnee
  {
   OFFSET 0.000000 -40.869800 0.001200
   CHANNELS 3 Yrotation Xrotation Zrotation
   JOINT LeftAnkle
   {
    OFFSET 0.000000 -39.717900 0.002100
    CHANNELS 3 Yrotation Xrotation Zrotation
    JOINT LeftToe
    {
     OFFSET 0.000000 -4.965400 11.033500
     CHANNELS 3 Yrotation Xrotation Zrotation
     End Site
     {
      OFFSET 0.000000 -1.423100 5.872300
     }
    }
   }
  }
 }
}
MOTION
Frames: 12
Frame Time: 0.008333
-262.078995 60.128751 -81.082400 157.778313 -26.229310 1.784513 3.857561 16.403038 1.522436 0.363863 1.693874 0.118561 0.609410 2.829261 0.199115 3.289837 14.450760 1.394606 2.474290 18.830510 0.130600 2.582311 -5.826270 -0.427720 -0.208620 1.029111 -6.585106 -8.478518 -15.218502 -2.601980 -93.511388 -79.695027 104.924475 4.369341 8.197741 -13.801185 -4.831180 -0.807240 -2.987586 30.448950 -7.252022 -0.071972 106.347138 -72.758027 -126.874529 -8.503904 3.475412 -6.929887 -2.399934 -43.344233 6.535062 -24.072220 68.988320 -20.927494 0.014060 -3.812657 -3.863219 0.027271 -0.142148 -0.005509 12.827204 -43.614138 -0.172321 23.438622 63.157590 23.545478 -15.758635 -12.596103 3.285050 0.002245 0.117423 0.032176
-262.077215 60.130305 -81.081069 157.784587 -26.226903 1.787012 3.851455 16.402264 1.514368 0.366267 1.695050 0.113779 0.608145 2.828731 0.201751 3.282514 14.455294 1.389159 2.465738 18.832803 0.122850 2.588300 -5.833613 -0.420824 -0.206162 1.029734 -6.591269 -8.477590 -15.219629 -2.605489 -93.461544 -79.714773 104.860658 4.355072 8.186979 -13.790882 -4.845916 -0.807921 -2.982805 30.391950 -7.250145 -0.086913 106.186419 -72.826368 -126.646446 -8.521829 3.425660 -6.918560 -2.397171 -43.346453 6.525778 -24.064193 68.986885 -20.913144 0.009683 -3.806931 -3.864870 0.027857 -0.146301 -0.005134 12.821789 -43.613882 -0.174914 23.464642 63.146970 23.552095 -15.742460 -12.563506 3.302023 0.003329 0.101390 0.019211
-262.074126 60.131940 -81.079866 157.787872 -26.230853 1.783156 3.855835 16.404967 1.512376 0.362270 1.696505 0.117878 0.608290 2.829358 0.199512 3.280103 14.459560 1.382261 2.466847 18.828527 0.130247 2.580120 -5.833040 -0.421418 -0.208665 1.031034 -6.596287 -8.480721 -15.217938 -2.605175 -93.346889 -79.759300 104.730030 4.319771 8.158397 -13.774365 -4.880878 -0.797981 -2.982337 30.377000 -7.260052 -0.086687 106.164179 -72.896888 -126.556893 -8.525204 3.406084 -6.911712 -2.392713 -43.340837 6.522051 -24.063716 68.983456 -20.895946 0.003333 -3.802591 -3.874629 0.033775 -0.149244 -0.003970 12.809022 -43.607191 -0.162697 23.482715 63.137552 23.553946 -15.716338 -12.541272 3.314751 0.010440 0.097368 0.010340
-262.073661 60.132593 -81.077872 157.801364 -26.226346 1.785979 3.843255 16.399004 1.499776 0.361118 1.698436 0.120890 0.609194 2.829337 0.196312 3.276383 14.463838 1.376694 2.468381 18.825467 0.135186 2.571302 -5.831829 -0.422552 -0.209227 1.034489 -6.604299 -8.484389 -15.212549 -2.623327 -93.333523 -79.750840 104.710207 4.351772 8.207013 -13.768318 -4.894591 -0.792178 -2.975975 30.341631 -7.254641 -0.087927 106.234149 -72.946034 -126.557951 -8.544839 3.416389 -6.886210 -2.390535 -43.347449 6.507211 -24.049610 68.987276 -20.867731 -0.017862 -3.801207 -3.887444 0.045341 -0.151722 0.002146 12.800340 -43.606852 -0.167152 23.458535 63.133219 23.512276 -15.687893 -12.521592 3.331825 0.025466 0.104270 0.006979
-262.071576 60.133859 -81.077154 157.809702 -26.235922 1.782785 3.835665 16.406691 1.496975 0.363619 1.698273 0.118966 0.605718 2.831262 0.195979 3.277307 14.466980 1.371268 2.463406 18.824941 0.136904 2.569358 -5.831653 -0.422098 -0.209594 1.035539 -6.602055 -8.486631 -15.208698 -2.634908 -93.336433 -79.744301 104.710331 4.362936 8.225806 -13.760916 -4.903602 -0.787276 -2.965613 30.302921 -7.245501 -0.089588 106.311247 -73.016292 -126.554036 -8.550088 3.415744 -6.861928 -2.395832 -43.338039 6.505504 -24.054011 68.987358 -20.865937 -0.018028 -3.798838 -3.889270 0.045187 -0.154586 0.002956 12.792402 -43.596652 -0.170554 23.434080 63.130921 23.483032 -15.588126 -12.482841 3.356268 0.042116 0.088883 -0.007527
-262.067891 60.134406 -81.074912 157.812061 -26.241673 1.767235 3.835705 16.409850 1.508209 0.364205 1.698722 0.118376 0.603832 2.832787 0.193961 3.267353 14.474564 1.357736 2.472856 18.820550 0.144497 2.570003 -5.832395 -0.423660 -0.197272 1.033156 -6.593880 -8.490761 -15.203816 -2.645472 -93.344529 -79.737873 104.716878 4.361952 8.228086 -13.753148 -4.891893 -0.791274 -2.948985 30.257028 -7.233247 -0.087652 106.370953 -73.104201 -126.525839 -8.539373 3.402405 -6.844246 -2.419025 -43.331074 6.530711 -24.051877 68.985910 -20.864398 -0.012492 -3.794297 -3.890757 0.044031 -0.158062 0.006277 12.782328 -43.593089 -0.159865 23.420625 63.129069 23.469907 -15.465973 -12.473000 3.374969 0.049789 0.092003 -0.019311
-262.069968 60.134205 -81.073496 157.818292 -26.239805 1.780792 3.821946 16.406872 1.485681 0.365809 1.700351 0.118213 0.601832 2.832914 0.193491 3.263726 14.477348 1.351632 2.474942 18.821711 0.144619 2.569676 -5.833624 -0.425372 -0.199515 1.034524 -6.601323 -8.490161 -15.198901 -2.640896 -93.344868 -79.745698 104.718483 4.352438 8.225753 -13.747147 -4.900245 -0.780897 -2.944680 30.236191 -7.236440 -0.085318 106.386780 -73.168391 -126.482313 -8.539883 3.401447 -6.819322 -2.418956 -43.332856 6.514361 -24.046950 68.984174 -20.862878 -0.011729 -3.797157 -3.894015 0.045473 -0.154149 0.009181 12.803654 -43.590787 -0.187013 23.383127 63.129760 23.445192 -15.502016 -12.468006 3.377641 0.023625 0.104599 -0.019994
-262.074181 60.134020 -81.073374 157.824472 -26.240989 1.806092 3.804746 16.408072 1.451538 0.361611 1.699254 0.113803 0.605498 2.834922 0.195969 3.260423 14.479358 1.345289 2.475475 18.823204 0.145390 2.571763 -5.834138 -0.428860 -0.203763 1.035849 -6.609565 -8.484777 -15.197936 -2.625813 -93.306247 -79.755829 104.676024 4.355651 8.226097 -13.734044 -4.908785 -0.772878 -2.935018 30.208304 -7.229378 -0.084758 106.403529 -73.222525 -126.439685 -8.537394 3.401855 -6.799620 -2.444634 -43.328568 6.504136 -24.015646 68.982960 -20.860212 -0.010085 -3.804287 -3.898828 0.048507 -0.147142 0.011414 12.841398 -43.585671 -0.231159 23.306006 63.141329 23.399451 -15.595043 -12.467193 3.369662 -0.023768 0.117956 -0.020182
-262.073809 60.134088 -81.072748 157.827637 -26.249283 1.803355 3.798238 16.415476 1.447280 0.362568 1.699410 0.114861 0.605219 2.835396 0.195268 3.255990 14.481966 1.338812 2.465423 18.824992 0.130173 2.582852 -5.835781 -0.423613 -0.209804 1.036783 -6.621768 -8.482440 -15.195475 -2.621570 -93.214634 -79.767574 104.595548 4.339195 8.216585 -13.730706 -4.921375 -0.766215 -2.927037 30.178075 -7.219712 -0.085312 106.418612 -73.268005 -126.396255 -8.532104 3.402888 -6.786827 -2.476952 -43.315238 6.523321 -24.009386 68.978551 -20.868300 -0.002346 -3.810580 -3.904749 0.048392 -0.141493 0.013636 12.868568 -43.584860 -0.256010 23.297627 63.152963 23.421000 -15.565651 -12.480425 3.380000 -0.029818 0.124051 -0.030796
-262.071127 60.134137 -81.071789 157.824991 -26.259249 1.787106 3.803349 16.424312 1.462711 0.359009 1.699528 0.111911 0.604949 2.836132 0.194510 3.257080 14.483685 1.337415 2.462198 18.825351 0.123590 2.584322 -5.835876 -0.428567 -0.216587 1.039379 -6.635255 -8.479158 -15.194955 -2.617706 -93.209381 -79.756650 104.595486 4.345451 8.223507 -13.725399 -4.942694 -0.761693 -2.923950 30.186722 -7.221848 -0.086122 106.375796 -73.299117 -126.332870 -8.526433 3.390434 -6.781112 -2.518766 -43.298892 6.563865 -24.006115 68.972251 -20.879624 0.013677 -3.813493 -3.907863 0.042420 -0.138589 0.013705 12.863739 -43.582479 -0.243147 23.311874 63.161694 23.444095 -15.477963 -12.506394 3.396946 -0.049737 0.137018 -0.050971
-262.070249 60.133896 -81.071209 157.827767 -26.264996 1.777192 3.801080 16.429746 1.468520 0.352903 1.697226 0.108285 0.604797 2.837054 0.193567 3.265499 14.485305 1.342117 2.458715 18.825756 0.119203 2.580797 -5.834755 -0.438240 -0.224503 1.041725 -6.648789 -8.483512 -15.197400 -2.616657 -93.185053 -79.746768 104.582433 4.377556 8.236295 -13.709397 -4.985189 -0.744466 -2.917086 30.213927 -7.230590 -0.099440 106.386947 -73.308586 -126.327186 -8.517156 3.441273 -6.787313 -2.554358 -43.288022 6.590004 -24.000215 68.968350 -20.886787 0.024081 -3.817113 -3.906992 0.037784 -0.136185 0.010766 12.855601 -43.580065 -0.234812 23.318299 63.163787 23.453243 -15.420049 -12.524775 3.411939 -0.060344 0.148642 -0.066124
-262.068214 60.134285 -81.071952 157.821592 -26.278937 1.766119 3.796402 16.435508 1.472709 0.359689 1.699247 0.111046 0.604790 2.837773 0.192992 3.261391 14.491900 1.336505 2.466579 18.824903 0.120766 2.579835 -5.834112 -0.448766 -0.230137 1.042977 -6.653299 -8.493105 -15.194500 -2.637633 -93.187765 -79.720844 104.611819 4.383058 8.239700 -13.699121 -4.989611 -0.737406 -2.905642 30.182797 -7.206975 -0.107013 106.356444 -73.329850 -126.271103 -8.501960 3.452177 -6.793135 -2.581204 -43.267996 6.619655 -23.990474 68.966002 -20.887202 0.032643 -3.822609 -3.907203 0.034809 -0.133205 0.010272 12.851970 -43.571912 -0.223601 23.341492 63.167942 23.487115 -15.356592 -12.542090 3.420674 0.011112 0.144839 -0.050468
